<?xml version="1.0" standalone="no"?>
<!DOCTYPE svg PUBLIC "-//W3C//DTD SVG 20010904//EN"
 "http://www.w3.org/TR/2001/REC-SVG-20010904/DTD/svg10.dtd">
<svg version="1.0" xmlns="http://www.w3.org/2000/svg"
 width="1024.000000pt" height="266.000000pt" viewBox="0 0 1024.000000 266.000000"
 preserveAspectRatio="xMidYMid meet">

<g transform="translate(0.000000,266.000000) scale(0.100000,-0.100000)"
fill="#000000" stroke="none">
<path d="M85 2558 c-3 -7 -4 -564 -3 -1238 l3 -1225 5028 -3 5027 -2 -1 22
c-1 17 -2 19 -6 6 -4 -17 -252 -18 -5024 -18 l-5019 0 0 1230 0 1230 5019 0
c4772 0 5020 -1 5025 -17 4 -14 4 -14 3 2 -2 20 -11 20 -5025 23 -4013 2
-5024 0 -5027 -10z"/>
<path d="M1674 2358 c-23 -24 -62 -69 -87 -101 l-47 -59 0 -479 0 -479 180 0
180 0 0 478 0 477 -85 103 c-47 56 -89 102 -93 102 -4 0 -26 -19 -48 -42z"/>
<path d="M1120 2025 l0 -125 185 0 185 0 0 125 0 125 -185 0 -185 0 0 -125z"/>
<path d="M1947 2143 c-10 -9 -8 -215 1 -231 7 -9 51 -12 188 -10 l179 3 3 123
3 122 -184 0 c-101 0 -187 -3 -190 -7z"/>
<path d="M1027 1844 c-4 -4 -7 -142 -7 -306 l0 -298 235 0 236 0 -3 143 -3
142 -37 3 c-37 3 -38 4 -38 43 0 39 0 39 40 39 l41 0 -3 118 -3 117 -226 3
c-124 1 -228 -1 -232 -4z m303 -154 l0 -50 -85 0 -85 0 0 50 0 50 85 0 85 0 0
-50z m0 -255 l0 -55 -85 0 -85 0 0 55 0 55 85 0 85 0 0 -55z"/>
<path d="M1947 1844 c-4 -4 -7 -142 -7 -306 l0 -298 235 0 235 0 0 105 0 104
-147 3 -148 3 -3 97 -3 97 148 3 148 3 0 95 0 95 -226 3 c-124 1 -228 -1 -232
-4z"/>
<path d="M4922 1675 c-72 -20 -106 -39 -152 -85 -62 -62 -73 -97 -74 -235 -1
-106 2 -125 22 -167 32 -65 111 -134 175 -153 86 -26 251 -15 296 19 60 46
107 115 113 166 3 18 -7 25 -71 46 -40 13 -79 24 -86 24 -6 0 -19 -18 -28 -40
-40 -102 -184 -105 -217 -4 -15 44 -18 134 -7 184 4 19 19 49 34 65 23 26 33
30 79 30 42 0 58 -5 78 -24 14 -14 26 -30 26 -38 0 -7 8 -13 18 -13 37 0 182
33 182 42 0 19 -41 87 -70 116 -63 64 -216 96 -318 67z"/>
<path d="M6772 1675 c-76 -21 -104 -38 -153 -93 -59 -66 -79 -125 -79 -237 0
-78 4 -98 28 -150 57 -118 133 -166 277 -173 75 -3 100 0 149 18 74 28 128 77
163 147 24 50 27 66 26 162 -1 131 -17 179 -81 244 -78 80 -216 114 -330 82z
m171 -176 c36 -33 47 -69 46 -147 0 -88 -16 -131 -58 -159 -40 -27 -78 -29
-124 -7 -54 26 -67 58 -67 164 0 102 13 140 58 165 39 22 113 14 145 -16z"/>
<path d="M3252 1353 l3 -318 160 -3 c267 -5 358 18 401 100 38 74 11 190 -52
224 -19 10 -34 20 -34 21 0 2 16 18 36 36 70 64 54 175 -34 229 -35 22 -48 23
-260 26 l-222 3 2 -318z m326 156 c37 -13 45 -30 26 -58 -13 -18 -25 -21 -95
-21 l-79 0 0 45 0 45 59 0 c32 0 72 -5 89 -11z m32 -222 c34 -17 39 -60 8 -81
-16 -12 -46 -16 -105 -16 l-83 0 0 55 0 55 78 0 c42 0 88 -6 102 -13z"/>
<path d="M3960 1595 l0 -75 100 0 100 0 0 -245 0 -245 95 0 95 0 2 243 3 242
103 3 102 3 0 74 0 75 -300 0 -300 0 0 -75z"/>
<path d="M5802 1353 l3 -318 170 -3 c94 -1 200 2 237 9 118 19 171 75 171 178
0 69 -22 112 -70 138 l-34 18 24 20 c81 66 72 185 -16 243 -40 27 -41 27 -264
30 l-223 3 2 -318z m328 155 c40 -15 49 -37 24 -62 -11 -12 -36 -16 -95 -16
l-79 0 0 38 c0 21 3 42 6 45 10 9 115 5 144 -5z m30 -221 c34 -17 39 -60 8
-81 -16 -12 -46 -16 -105 -16 l-83 0 0 55 0 55 78 0 c42 0 88 -6 102 -13z"/>
<path d="M7471 1493 c-35 -98 -70 -191 -77 -208 -36 -89 -90 -245 -86 -250 3
-3 49 -5 103 -5 l98 0 17 55 18 55 107 0 108 0 11 -42 c6 -24 13 -49 15 -55 3
-9 33 -13 105 -13 l102 0 -7 33 c-4 17 -13 43 -20 57 -7 14 -18 43 -25 65 -7
22 -18 54 -25 70 -20 47 -95 252 -95 260 0 4 -7 21 -15 38 -8 18 -21 50 -28
72 l-14 40 -114 3 -114 2 -64 -177z m212 -100 c15 -49 27 -91 27 -95 0 -11
-108 -10 -114 1 -3 5 1 28 8 52 8 24 19 63 26 87 7 23 16 42 19 42 4 0 19 -39
34 -87z"/>
<path d="M8132 1353 l3 -318 88 -3 87 -3 0 121 0 120 33 0 c17 0 39 -6 48 -13
13 -10 67 -92 136 -204 13 -22 20 -23 118 -23 58 0 105 4 105 9 0 4 -11 25
-25 45 -14 20 -25 39 -25 42 0 17 -105 157 -122 163 -19 7 -16 10 26 30 146
71 123 304 -34 340 -25 6 -134 11 -243 11 l-197 0 2 -317z m331 156 c35 -9 37
-12 37 -48 0 -48 -7 -51 -111 -51 l-79 0 0 55 0 55 58 0 c31 0 74 -5 95 -11z"/>
<path d="M8892 1353 l3 -318 145 -3 c184 -4 267 9 323 52 66 50 94 100 106
189 21 151 -21 290 -104 346 -64 44 -108 51 -299 51 l-176 0 2 -317z m338 139
c32 -24 49 -72 49 -142 2 -122 -31 -160 -138 -160 l-61 0 0 166 0 167 63 -7
c35 -3 73 -14 87 -24z"/>
<path d="M750 1445 l0 -205 115 0 115 0 0 205 0 205 -115 0 -115 0 0 -205z"/>
<path d="M2460 1445 l0 -205 115 0 115 0 0 205 0 205 -115 0 -115 0 0 -205z"/>
<path d="M933 1155 c6 -39 12 -36 -97 -55 -33 -5 -61 -11 -62 -13 -5 -5 53
-167 65 -181 10 -12 22 -10 74 14 l61 28 34 -66 c18 -36 37 -71 42 -77 7 -9
-6 -23 -45 -49 -30 -20 -55 -40 -55 -45 0 -4 34 -44 75 -89 l75 -80 49 51 49
51 33 -25 c19 -14 55 -36 81 -49 l47 -23 -45 -62 -44 -63 35 -21 c20 -12 38
-21 40 -21 3 0 30 -12 61 -26 64 -29 81 -27 90 13 3 15 12 52 20 82 13 47 18
52 37 47 12 -3 52 -6 89 -6 l67 0 3 -97 3 -98 45 -3 c46 -4 166 13 188 27 11
6 4 64 -20 172 -2 8 24 20 73 34 l76 22 49 -61 c26 -34 51 -65 55 -70 11 -13
189 109 189 130 0 5 -25 33 -55 64 l-55 56 54 53 54 54 74 -41 74 -40 57 93
c31 51 57 97 57 102 0 11 -65 37 -117 48 -48 10 -52 22 -30 93 l19 62 103 0
103 0 7 33 c4 17 9 40 11 50 5 16 -12 17 -248 17 l-254 0 -27 -85 c-28 -85
-90 -185 -145 -233 -231 -203 -562 -166 -735 81 -36 52 -76 137 -101 220 -5
15 -21 17 -147 17 l-142 0 6 -35z"/>
</g>
</svg>
